{
 "cells": [
  {
   "cell_type": "code",
   "execution_count": 1,
   "metadata": {},
   "outputs": [],
   "source": [
    "import mido\n",
    "from mido import MidiFile, Message, MidiTrack\n",
    "import torch\n",
    "import os\n",
    "import numpy as np\n",
    "import time"
   ]
  },
  {
   "cell_type": "code",
   "execution_count": 2,
   "metadata": {},
   "outputs": [],
   "source": [
    "def CountTracks(directory):          #Count files and tracks in folder\n",
    "    trackCount = 0\n",
    "    fileCount = 0\n",
    "    for file in os.listdir(directory):\n",
    "        if file.endswith(\".midi\"):\n",
    "            fileCount += 1\n",
    "            midiDir = MidiFile(directory+\"/\"+file)\n",
    "            for track in midiDir.tracks:\n",
    "                trackCount += 1\n",
    "    print(fileCount+\" files\")\n",
    "    print(trackCount+\" tracks\")\n",
    "\n",
    "    \n",
    "def PrintMessages(mid):                # print midi messages\n",
    "    for i, track in enumerate(mid.tracks):\n",
    "        print('Track {}: {}'.format(i, track.name))\n",
    "        for msg in track:\n",
    "            print(msg)\n",
    "\n",
    "            \n",
    "def PrintSomeMessages(mid):             #print first 200 midi messages\n",
    "    track = mid.tracks[1]\n",
    "    for i,msg in enumerate(track):\n",
    "        if i < 200:\n",
    "            print(msg)"
   ]
  },
  {
   "cell_type": "code",
   "execution_count": 3,
   "metadata": {},
   "outputs": [],
   "source": [
    "def Midi2Numpy(mid):                                #converts to numpy array removing non-note messages\n",
    "    track = mid.tracks[1]                           #0th track only contains meta-messages, all notes on 1st track\n",
    "    notes = np.empty([0,4])\n",
    "    time = 0\n",
    "    for msg in track:\n",
    "        if msg.type == \"note_on\":                   # only count \"note\" messages - other inputs i.e. foot pedals are ignored\n",
    "            notes = np.append(notes,np.array([[msg.note, msg.velocity, msg.time + time, 0]]),axis=0)         # (note, velocity, time, sustain)\n",
    "            time = 0\n",
    "        else:\n",
    "            time += msg.time                        #adjust time when removing other messages\n",
    "    return notes\n",
    "\n",
    "\n",
    "def NumpyGetSustain(notes):\n",
    "    for i, msg in enumerate(notes):\n",
    "        if msg[1] > 0:                            # if velocity is not 0\n",
    "            j = 1\n",
    "            sustain = 0\n",
    "            while msg[0] != notes[i+j][0]:        # while note values are different\n",
    "                sustain += notes[i+j][2]\n",
    "                j += 1                            #search for next message with same note i.e. message telling that note was released\n",
    "            notes[i,3] = sustain + notes[i+j][2]\n",
    "    time = 0\n",
    "    for i, msg in enumerate(notes):\n",
    "        if msg[1] > 0:\n",
    "            notes[i,2] += time\n",
    "            time = 0\n",
    "        else:\n",
    "            time += msg[2]                        #adjust time\n",
    "    notes = notes[notes[:,1] > 0]                 #filter for notes with positive velocities (note presses)\n",
    "    return notes"
   ]
  },
  {
   "cell_type": "code",
   "execution_count": 12,
   "metadata": {},
   "outputs": [],
   "source": [
    "def cleanupMessages(mid):\n",
    "    track = mid.tracks[1]\n",
    "    track2 = []\n",
    "    for msg in track:\n",
    "        if msg.type == \"note_on\":\n",
    "            track2.append(msg)\n",
    "    mid.tracks[1] = track2"
   ]
  },
  {
   "cell_type": "code",
   "execution_count": 16,
   "metadata": {},
   "outputs": [
    {
     "name": "stdout",
     "output_type": "stream",
     "text": [
      "<meta message track_name name='7.6.13 Group 1' time=0>\n",
      "program_change channel=0 program=0 time=0\n",
      "control_change channel=0 control=64 value=95 time=0\n",
      "control_change channel=0 control=67 value=0 time=0\n",
      "control_change channel=0 control=64 value=95 time=46\n",
      "control_change channel=0 control=64 value=94 time=11\n",
      "control_change channel=0 control=64 value=91 time=15\n",
      "control_change channel=0 control=64 value=87 time=16\n",
      "control_change channel=0 control=64 value=83 time=15\n",
      "control_change channel=0 control=64 value=79 time=16\n",
      "control_change channel=0 control=64 value=75 time=15\n",
      "control_change channel=0 control=64 value=71 time=15\n",
      "control_change channel=0 control=64 value=68 time=16\n",
      "control_change channel=0 control=64 value=65 time=15\n",
      "control_change channel=0 control=64 value=64 time=15\n",
      "control_change channel=0 control=64 value=63 time=15\n",
      "control_change channel=0 control=64 value=62 time=15\n",
      "control_change channel=0 control=64 value=62 time=16\n",
      "control_change channel=0 control=64 value=61 time=15\n",
      "control_change channel=0 control=64 value=60 time=23\n",
      "control_change channel=0 control=64 value=58 time=15\n",
      "control_change channel=0 control=64 value=55 time=15\n",
      "control_change channel=0 control=64 value=46 time=15\n",
      "control_change channel=0 control=64 value=25 time=15\n",
      "control_change channel=0 control=64 value=0 time=16\n",
      "control_change channel=0 control=64 value=32 time=243\n",
      "control_change channel=0 control=64 value=48 time=15\n",
      "control_change channel=0 control=64 value=56 time=15\n",
      "control_change channel=0 control=64 value=60 time=16\n",
      "control_change channel=0 control=64 value=63 time=14\n",
      "control_change channel=0 control=64 value=65 time=15\n",
      "control_change channel=0 control=64 value=69 time=16\n",
      "control_change channel=0 control=64 value=75 time=14\n",
      "control_change channel=0 control=64 value=88 time=16\n",
      "control_change channel=0 control=64 value=127 time=15\n",
      "note_on channel=0 note=67 velocity=74 time=28\n",
      "note_on channel=0 note=39 velocity=53 time=15\n",
      "note_on channel=0 note=63 velocity=55 time=5\n",
      "note_on channel=0 note=58 velocity=54 time=2\n",
      "note_on channel=0 note=39 velocity=0 time=75\n",
      "note_on channel=0 note=51 velocity=48 time=50\n",
      "note_on channel=0 note=51 velocity=0 time=32\n",
      "control_change channel=0 control=67 value=20 time=5\n",
      "control_change channel=0 control=67 value=38 time=14\n",
      "control_change channel=0 control=67 value=56 time=16\n",
      "control_change channel=0 control=67 value=64 time=15\n",
      "control_change channel=0 control=67 value=66 time=15\n",
      "note_on channel=0 note=51 velocity=63 time=14\n",
      "control_change channel=0 control=67 value=67 time=1\n",
      "note_on channel=0 note=51 velocity=0 time=37\n",
      "note_on channel=0 note=51 velocity=72 time=78\n",
      "note_on channel=0 note=58 velocity=0 time=10\n",
      "note_on channel=0 note=51 velocity=0 time=22\n",
      "note_on channel=0 note=63 velocity=0 time=26\n",
      "control_change channel=0 control=67 value=66 time=3\n",
      "control_change channel=0 control=67 value=66 time=15\n",
      "control_change channel=0 control=67 value=65 time=15\n",
      "control_change channel=0 control=67 value=64 time=16\n",
      "note_on channel=0 note=51 velocity=60 time=1\n",
      "control_change channel=0 control=67 value=63 time=14\n",
      "control_change channel=0 control=67 value=62 time=15\n",
      "note_on channel=0 note=51 velocity=0 time=10\n",
      "control_change channel=0 control=67 value=61 time=5\n",
      "control_change channel=0 control=67 value=60 time=30\n",
      "control_change channel=0 control=67 value=60 time=16\n",
      "control_change channel=0 control=67 value=59 time=15\n",
      "control_change channel=0 control=67 value=59 time=12\n",
      "note_on channel=0 note=51 velocity=54 time=10\n",
      "note_on channel=0 note=51 velocity=0 time=20\n",
      "control_change channel=0 control=67 value=58 time=16\n",
      "control_change channel=0 control=67 value=57 time=47\n",
      "note_on channel=0 note=51 velocity=57 time=26\n",
      "note_on channel=0 note=63 velocity=59 time=14\n",
      "note_on channel=0 note=55 velocity=51 time=5\n",
      "note_on channel=0 note=58 velocity=54 time=1\n",
      "note_on channel=0 note=67 velocity=0 time=11\n",
      "control_change channel=0 control=64 value=90 time=3\n",
      "control_change channel=0 control=67 value=57 time=0\n",
      "note_on channel=0 note=51 velocity=0 time=1\n",
      "control_change channel=0 control=64 value=69 time=15\n",
      "control_change channel=0 control=64 value=49 time=14\n",
      "control_change channel=0 control=67 value=56 time=0\n",
      "control_change channel=0 control=64 value=0 time=15\n",
      "control_change channel=0 control=67 value=56 time=0\n",
      "control_change channel=0 control=67 value=55 time=31\n",
      "note_on channel=0 note=51 velocity=72 time=13\n",
      "control_change channel=0 control=67 value=54 time=2\n",
      "control_change channel=0 control=67 value=54 time=30\n",
      "note_on channel=0 note=51 velocity=0 time=2\n",
      "control_change channel=0 control=67 value=53 time=14\n",
      "control_change channel=0 control=67 value=51 time=15\n",
      "control_change channel=0 control=67 value=49 time=15\n",
      "control_change channel=0 control=67 value=45 time=15\n",
      "control_change channel=0 control=67 value=38 time=15\n",
      "note_on channel=0 note=51 velocity=68 time=5\n",
      "control_change channel=0 control=67 value=23 time=10\n",
      "note_on channel=0 note=55 velocity=0 time=9\n",
      "control_change channel=0 control=67 value=0 time=8\n",
      "note_on channel=0 note=51 velocity=0 time=4\n",
      "note_on channel=0 note=58 velocity=0 time=34\n",
      "note_on channel=0 note=63 velocity=0 time=28\n",
      "note_on channel=0 note=51 velocity=66 time=24\n",
      "note_on channel=0 note=51 velocity=0 time=28\n",
      "note_on channel=0 note=51 velocity=75 time=69\n",
      "note_on channel=0 note=51 velocity=0 time=25\n",
      "note_on channel=0 note=51 velocity=74 time=69\n",
      "note_on channel=0 note=51 velocity=0 time=48\n",
      "note_on channel=0 note=70 velocity=95 time=70\n",
      "note_on channel=0 note=58 velocity=94 time=5\n",
      "note_on channel=0 note=63 velocity=83 time=5\n",
      "note_on channel=0 note=67 velocity=79 time=0\n",
      "note_on channel=0 note=39 velocity=71 time=7\n",
      "control_change channel=0 control=64 value=54 time=16\n",
      "control_change channel=0 control=64 value=58 time=15\n",
      "control_change channel=0 control=64 value=62 time=15\n",
      "control_change channel=0 control=64 value=67 time=16\n",
      "control_change channel=0 control=64 value=75 time=15\n",
      "control_change channel=0 control=64 value=90 time=16\n",
      "note_on channel=0 note=39 velocity=0 time=6\n",
      "control_change channel=0 control=64 value=112 time=8\n",
      "note_on channel=0 note=51 velocity=76 time=9\n",
      "control_change channel=0 control=64 value=127 time=6\n",
      "note_on channel=0 note=51 velocity=0 time=29\n",
      "note_on channel=0 note=51 velocity=74 time=73\n",
      "note_on channel=0 note=39 velocity=33 time=28\n",
      "note_on channel=0 note=51 velocity=0 time=2\n",
      "note_on channel=0 note=39 velocity=0 time=24\n",
      "note_on channel=0 note=70 velocity=0 time=12\n",
      "note_on channel=0 note=58 velocity=0 time=11\n",
      "note_on channel=0 note=67 velocity=0 time=5\n",
      "note_on channel=0 note=51 velocity=67 time=25\n",
      "note_on channel=0 note=63 velocity=0 time=16\n",
      "note_on channel=0 note=51 velocity=0 time=13\n",
      "note_on channel=0 note=39 velocity=44 time=1\n",
      "note_on channel=0 note=39 velocity=0 time=35\n",
      "note_on channel=0 note=51 velocity=75 time=50\n",
      "note_on channel=0 note=51 velocity=0 time=33\n",
      "note_on channel=0 note=51 velocity=78 time=73\n",
      "note_on channel=0 note=51 velocity=0 time=27\n",
      "note_on channel=0 note=51 velocity=57 time=86\n",
      "note_on channel=0 note=67 velocity=77 time=9\n",
      "note_on channel=0 note=63 velocity=62 time=8\n",
      "note_on channel=0 note=55 velocity=61 time=1\n",
      "note_on channel=0 note=58 velocity=60 time=2\n",
      "control_change channel=0 control=64 value=95 time=8\n",
      "note_on channel=0 note=51 velocity=0 time=6\n",
      "control_change channel=0 control=64 value=68 time=9\n",
      "control_change channel=0 control=64 value=27 time=15\n",
      "control_change channel=0 control=64 value=0 time=15\n",
      "note_on channel=0 note=51 velocity=65 time=45\n",
      "note_on channel=0 note=51 velocity=0 time=31\n",
      "note_on channel=0 note=51 velocity=69 time=76\n",
      "note_on channel=0 note=55 velocity=0 time=7\n",
      "note_on channel=0 note=51 velocity=0 time=21\n",
      "note_on channel=0 note=58 velocity=0 time=35\n",
      "note_on channel=0 note=63 velocity=0 time=29\n",
      "note_on channel=0 note=67 velocity=0 time=2\n",
      "note_on channel=0 note=51 velocity=69 time=8\n",
      "note_on channel=0 note=51 velocity=0 time=30\n",
      "note_on channel=0 note=51 velocity=54 time=80\n",
      "note_on channel=0 note=51 velocity=0 time=52\n",
      "note_on channel=0 note=51 velocity=53 time=21\n",
      "note_on channel=0 note=51 velocity=0 time=27\n",
      "note_on channel=0 note=70 velocity=55 time=1\n",
      "note_on channel=0 note=70 velocity=0 time=145\n",
      "note_on channel=0 note=75 velocity=62 time=15\n",
      "note_on channel=0 note=55 velocity=14 time=23\n",
      "note_on channel=0 note=63 velocity=40 time=17\n",
      "note_on channel=0 note=51 velocity=9 time=22\n",
      "note_on channel=0 note=74 velocity=65 time=58\n",
      "note_on channel=0 note=75 velocity=0 time=2\n",
      "note_on channel=0 note=77 velocity=77 time=91\n",
      "note_on channel=0 note=74 velocity=0 time=5\n",
      "note_on channel=0 note=56 velocity=54 time=107\n",
      "note_on channel=0 note=75 velocity=78 time=4\n",
      "note_on channel=0 note=77 velocity=0 time=0\n",
      "note_on channel=0 note=53 velocity=49 time=15\n",
      "note_on channel=0 note=55 velocity=0 time=8\n",
      "note_on channel=0 note=51 velocity=0 time=64\n",
      "note_on channel=0 note=56 velocity=0 time=9\n",
      "note_on channel=0 note=74 velocity=69 time=10\n",
      "note_on channel=0 note=75 velocity=0 time=3\n",
      "note_on channel=0 note=74 velocity=0 time=80\n",
      "note_on channel=0 note=77 velocity=67 time=21\n",
      "note_on channel=0 note=53 velocity=0 time=71\n",
      "note_on channel=0 note=77 velocity=0 time=43\n",
      "note_on channel=0 note=58 velocity=38 time=6\n",
      "note_on channel=0 note=55 velocity=44 time=4\n",
      "note_on channel=0 note=75 velocity=62 time=7\n",
      "note_on channel=0 note=63 velocity=0 time=71\n",
      "note_on channel=0 note=75 velocity=0 time=11\n",
      "note_on channel=0 note=74 velocity=59 time=23\n",
      "note_on channel=0 note=55 velocity=0 time=35\n",
      "note_on channel=0 note=58 velocity=0 time=19\n",
      "note_on channel=0 note=74 velocity=0 time=31\n",
      "note_on channel=0 note=77 velocity=63 time=23\n",
      "note_on channel=0 note=77 velocity=0 time=91\n",
      "note_on channel=0 note=75 velocity=61 time=29\n",
      "note_on channel=0 note=75 velocity=0 time=90\n",
      "note_on channel=0 note=74 velocity=51 time=23\n"
     ]
    }
   ],
   "source": [
    "mid = MidiFile('testSong.midi')\n",
    "#cleanupMessages(mid)\n",
    "#mid.save(\"processed.midi\")\n",
    "PrintSomeMessages(mid)"
   ]
  },
  {
   "cell_type": "code",
   "execution_count": null,
   "metadata": {},
   "outputs": [],
   "source": [
    "t0 = time.time()\n",
    "\n",
    "mid = MidiFile('testSong.midi')\n",
    "notes = Midi2Numpy(mid)\n",
    "cleanNotes = NumpyGetSustain(notes)\n",
    "np.savetxt(\"test.csv\", cleanNotes, delimiter=\",\")\n",
    "\n",
    "t1 = time.time()\n",
    "print(t1-t0)"
   ]
  },
  {
   "cell_type": "code",
   "execution_count": null,
   "metadata": {},
   "outputs": [],
   "source": [
    "def CSV2Numpy(file):\n",
    "    notes = np.getfromtxt(file,delimiter=\",\")\n",
    "    for i,n in enumerate(notes):\n",
    "        \n"
   ]
  },
  {
   "cell_type": "code",
   "execution_count": null,
   "metadata": {},
   "outputs": [],
   "source": [
    "a = np.array([3,5,7])\n",
    "b = np.copy(a)\n",
    "b[1] = 984\n",
    "print(a)\n",
    "print(b)"
   ]
  },
  {
   "cell_type": "code",
   "execution_count": null,
   "metadata": {},
   "outputs": [],
   "source": []
  },
  {
   "cell_type": "code",
   "execution_count": null,
   "metadata": {},
   "outputs": [],
   "source": []
  }
 ],
 "metadata": {
  "kernelspec": {
   "display_name": "Python 3",
   "language": "python",
   "name": "python3"
  },
  "language_info": {
   "codemirror_mode": {
    "name": "ipython",
    "version": 3
   },
   "file_extension": ".py",
   "mimetype": "text/x-python",
   "name": "python",
   "nbconvert_exporter": "python",
   "pygments_lexer": "ipython3",
   "version": "3.7.4"
  }
 },
 "nbformat": 4,
 "nbformat_minor": 4
}
